<?xml version="1.0" encoding="UTF-8" standalone="no"?>
<!-- Created with Inkscape (http://www.inkscape.org/) -->

<svg
   xmlns:dc="http://purl.org/dc/elements/1.1/"
   xmlns:cc="http://creativecommons.org/ns#"
   xmlns:rdf="http://www.w3.org/1999/02/22-rdf-syntax-ns#"
   xmlns:svg="http://www.w3.org/2000/svg"
   xmlns="http://www.w3.org/2000/svg"
   xmlns:sodipodi="http://sodipodi.sourceforge.net/DTD/sodipodi-0.dtd"
   xmlns:inkscape="http://www.inkscape.org/namespaces/inkscape"
   width="223.14978mm"
   height="176.79449mm"
   viewBox="0 0 790.68819 626.43718"
   id="svg2"
   version="1.1"
   inkscape:version="0.91 r13725"
   sodipodi:docname="on target.svg">
  <defs
     id="defs4" />
  <sodipodi:namedview
     id="base"
     pagecolor="#ffffff"
     bordercolor="#666666"
     borderopacity="1.0"
     inkscape:pageopacity="0.0"
     inkscape:pageshadow="2"
     inkscape:zoom="0.1767767"
     inkscape:cx="-899.65275"
     inkscape:cy="681.60662"
     inkscape:document-units="px"
     inkscape:current-layer="layer1"
     showgrid="false"
     fit-margin-top="0"
     fit-margin-left="0"
     fit-margin-right="0"
     fit-margin-bottom="0"
     inkscape:window-width="1366"
     inkscape:window-height="745"
     inkscape:window-x="-8"
     inkscape:window-y="-8"
     inkscape:window-maximized="1" />
  <metadata
     id="metadata7">
    <rdf:RDF>
      <cc:Work
         rdf:about="">
        <dc:format>image/svg+xml</dc:format>
        <dc:type
           rdf:resource="http://purl.org/dc/dcmitype/StillImage" />
        <dc:title></dc:title>
      </cc:Work>
    </rdf:RDF>
  </metadata>
  <g
     inkscape:label="Layer 1"
     inkscape:groupmode="layer"
     id="layer1"
     transform="translate(-815.10047,-111.50335)">
    <path
       style="opacity:1;fill:#ffffff;fill-opacity:1;fill-rule:nonzero;stroke:none;stroke-width:0.31;stroke-linecap:round;stroke-linejoin:round;stroke-miterlimit:4;stroke-dasharray:none;stroke-dashoffset:0;stroke-opacity:1"
       d="m 351.5,105.88477 a 267.5,267.5 0 0 0 -267.5,267.5 267.5,267.5 0 0 0 267.5,267.5 267.5,267.5 0 0 0 267.5,-267.5 267.5,267.5 0 0 0 -267.5,-267.5 z"
       transform="translate(746.78084,81.194755)"
       id="path4369"
       inkscape:connector-curvature="0" />
    <path
       style="opacity:1;fill:#aa0000;fill-opacity:1;fill-rule:nonzero;stroke:none;stroke-width:0.31;stroke-linecap:round;stroke-linejoin:round;stroke-miterlimit:4;stroke-dasharray:none;stroke-dashoffset:0;stroke-opacity:1"
       d="m 351.5,105.88477 a 267.5,267.5 0 0 0 -267.5,267.5 267.5,267.5 0 0 0 267.5,267.5 267.5,267.5 0 0 0 267.5,-267.5 267.5,267.5 0 0 0 -267.5,-267.5 z m 0,66 a 201.5,201.5 0 0 1 201.5,201.5 201.5,201.5 0 0 1 -201.5,201.5 201.5,201.5 0 0 1 -201.5,-201.5 201.5,201.5 0 0 1 201.5,-201.5 z m 0,46 a 155.5,155.5 0 0 0 -155.5,155.5 155.5,155.5 0 0 0 155.5,155.5 155.5,155.5 0 0 0 155.5,-155.5 155.5,155.5 0 0 0 -155.5,-155.5 z m 0,59.39648 A 96.103027,96.103027 0 0 1 447.60352,373.38477 96.103027,96.103027 0 0 1 351.5,469.48828 96.103027,96.103027 0 0 1 255.39648,373.38477 96.103027,96.103027 0 0 1 351.5,277.28125 Z m 0,43.8418 A 52.262405,52.262405 0 0 0 299.23828,373.38477 52.262405,52.262405 0 0 0 351.5,425.64844 52.262405,52.262405 0 0 0 403.76172,373.38477 52.262405,52.262405 0 0 0 351.5,321.12305 Z"
       transform="translate(746.78084,81.194755)"
       id="path4267"
       inkscape:connector-curvature="0" />
    <path
       style="opacity:1;fill:#000000;fill-opacity:1;fill-rule:nonzero;stroke:none;stroke-width:0.31;stroke-linecap:round;stroke-linejoin:round;stroke-miterlimit:4;stroke-dasharray:none;stroke-dashoffset:0;stroke-opacity:1"
       d="m 798.58398,30.308594 -3.86914,2.398437 c -49.2371,31.24759 -99.75933,60.464449 -148.20703,92.949219 -8.3144,15.0778 -14.46494,31.65215 -23.99804,45.77344 -15.65415,9.53216 -31.30875,19.06354 -46.96289,28.5957 -25.30647,-32.82492 -57.6783,-60.16239 -94.89258,-78.7168 -38.93968,-19.97052 -82.53618,-31.075313 -126.3418,-31.228512 -1.41308,-0.0049 -2.82687,0.0016 -4.24023,0.01953 -112.57339,-0.87483 -221.73011,73.187512 -261.875004,178.486332 -34.69069,86.71141 -23.726303,190.81011 30.947264,266.96484 51.18781,73.56698 138.70704,121.10956 228.64844,121.16406 86.9493,1.31628 173.86824,-39.44607 226.83984,-108.71679 52.0132,-66.19164 72.81269,-156.21507 52.96289,-238.25977 -4.65317,-20.38321 -11.66546,-40.19149 -20.74023,-59.00976 16.07228,-9.94724 32.1445,-19.89457 48.2168,-29.8418 18.3499,-0.61767 37.0761,2.29596 55.1582,-1.72461 49.5925,-30.14123 99.18474,-60.28281 148.77734,-90.42383 -24.9994,-7.24561 -50.0001,-14.48664 -75,-21.73047 l 14.57617,-76.699217 z m -19.69921,28.683594 -11.00977,57.927732 56.63867,16.40039 -121.55664,73.88086 -51.96484,-0.25781 -205.23828,127.02344 40.63867,45.89258 -136.77735,-6.05469 -0.2539,0.14843 0.0723,-0.15234 -0.16797,-0.004 0.24805,-0.16016 56.50195,-124.70703 22.53126,57.00586 L 634.70117,180.4043 657.99023,133.95117 778.88477,58.992188 Z M 351.5,105.88477 a 267.5,267.5 0 0 1 210.41406,102.4414 c -42.1543,25.66869 -84.30855,51.33717 -126.46289,77.00586 -9.5078,-24.05663 -19.01554,-48.1133 -28.52344,-72.16992 -23.2709,49.91953 -44.73614,100.6834 -68.81054,150.22461 -10.3216,6.70648 -5.91094,26.30148 6.94336,26.39648 17.9508,-4.25898 36.36514,0.92953 54.68554,0.28516 39.6963,1.77188 79.40169,3.32224 119.08789,5.31641 -17.1887,-19.42225 -34.38321,-38.83948 -51.57421,-58.25977 41.95135,-25.96393 83.90219,-51.92865 125.85351,-77.89258 A 267.5,267.5 0 0 1 619,373.38477 a 267.5,267.5 0 0 1 -267.5,267.5 267.5,267.5 0 0 1 -267.5,-267.5 267.5,267.5 0 0 1 267.5,-267.5 z"
       transform="translate(746.78084,81.194755)"
       id="path4372"
       inkscape:connector-curvature="0" />
    <path
       sodipodi:nodetypes="ccccccccccccccccc"
       inkscape:connector-curvature="0"
       id="path4395"
       d="m 1525.6649,140.18705 -120.8943,74.95944 -23.2886,46.45311 -206.1548,125.53149 -22.5317,-57.00739 -56.5014,124.70812 -0.2482,0.15941 0.1695,0.004 -0.073,0.15283 0.2545,-0.14918 136.7767,6.05484 -40.6381,-45.89189 205.2382,-127.02453 51.9644,0.25769 121.5564,-73.88085 -56.6387,-16.39856 z"
       style="fill:#ffff00" />
  </g>
</svg>
