<?xml version="1.0" encoding="iso-8859-1"?>
<!-- Uploaded to: SVG Repo, www.svgrepo.com, Generator: SVG Repo Mixer Tools -->
<svg height="800px" width="800px" version="1.1" id="Layer_1" xmlns="http://www.w3.org/2000/svg" xmlns:xlink="http://www.w3.org/1999/xlink" 
	 viewBox="0 0 512 512" xml:space="preserve">
<g transform="translate(1 1)">
	<path style="fill:#FFA800;" d="M177.773,7.533v25.6V50.2v75.947c0,12.8,8.533,23.893,20.48,26.453
		c16.213,3.413,30.72-9.387,30.72-24.747V75.8c0-14.507,11.093-25.6,25.6-25.6s25.6,11.093,25.6,25.6v101.547
		c0,12.8,8.533,23.893,20.48,26.453c16.213,3.413,30.72-9.387,30.72-24.747V50.2V33.133v-25.6H177.773z"/>
	<g>
		<path style="fill:#FDCC00;" d="M177.773,50.2V33.133v-25.6H118.04c-18.773,0-34.133,15.36-34.133,34.133S99.267,75.8,118.04,75.8
			h59.733V50.2z"/>
		<path style="fill:#FDCC00;" d="M391.107,7.533h-59.733v25.6V50.2v25.6h59.733c18.773,0,34.133-15.36,34.133-34.133
			S409.88,7.533,391.107,7.533"/>
	</g>
	<path style="fill:#FFA800;" d="M391.107,7.533h-25.6c18.773,0,34.133,15.36,34.133,34.133S384.28,75.8,365.507,75.8h25.6
		c18.773,0,34.133-15.36,34.133-34.133S409.88,7.533,391.107,7.533"/>
	<path style="fill:#FFFFFF;" d="M118.04,7.533h25.6c-18.773,0-34.133,15.36-34.133,34.133S124.867,75.8,143.64,75.8h-25.6
		c-18.773,0-34.133-15.36-34.133-34.133S99.267,7.533,118.04,7.533"/>
	<path style="fill:#FFE100;" d="M254.573,50.2c-14.507,0-25.6,11.093-25.6,25.6V127c0,15.36-14.507,28.16-30.72,24.747
		c-11.947-1.707-20.48-13.653-20.48-25.6V75.8h-51.2v35.84c0,8.533-6.827,15.36-15.36,15.36H96.707
		c-16.213,0-29.867,13.653-29.867,29.867v316.587c0,15.36,13.653,29.013,29.867,29.013h316.587
		c16.213,0,29.867-13.653,29.867-29.867V156.867c0-16.213-13.653-29.867-29.867-29.867h-14.507c-8.533,0-15.36-6.827-15.36-15.36
		V75.8h-51.2v102.4c0,15.36-14.507,28.16-30.72,24.747c-12.8-1.707-21.333-13.653-21.333-25.6V75.8
		C280.173,61.293,269.08,50.2,254.573,50.2"/>
	<path style="fill:#FFA800;" d="M412.44,127h-14.507c-8.533,0-15.36-6.827-15.36-15.36V75.8h-25.6v35.84
		c0,8.533,6.827,15.36,15.36,15.36h14.507c16.213,0,29.867,13.653,29.867,29.867v316.587c0,16.213-13.653,29.867-29.867,29.867h25.6
		c16.213,0,29.867-13.653,29.867-29.867V156.867C442.307,140.653,428.653,127,412.44,127"/>
	<path style="fill:#FFFFFF;" d="M96.707,127h14.507c8.533,0,15.36-6.827,15.36-15.36V75.8h25.6v35.84
		c0,8.533-6.827,15.36-15.36,15.36h-14.507c-16.213,0-29.867,13.653-29.867,29.867v316.587c0,15.36,13.653,29.013,29.867,29.013
		h-25.6c-16.213,0-29.867-13.653-29.867-29.867V156.867C66.84,140.653,80.493,127,96.707,127"/>
	<polygon style="fill:#FDCC00;" points="220.44,323.267 186.307,306.2 186.307,263.533 220.44,246.467 254.573,263.533 
		254.573,306.2 	"/>
	<polygon style="fill:#FFA800;" points="288.707,323.267 254.573,306.2 254.573,263.533 288.707,246.467 322.84,263.533 
		322.84,306.2 	"/>
	<polygon style="fill:#FDCC00;" points="186.307,383 152.173,365.933 152.173,323.267 186.307,306.2 220.44,323.267 220.44,365.933 
			"/>
	<g>
		<polygon style="fill:#FFA800;" points="254.573,383 220.44,365.933 220.44,323.267 254.573,306.2 288.707,323.267 
			288.707,365.933 		"/>
		<polygon style="fill:#FFA800;" points="220.44,442.733 186.307,425.667 186.307,383 220.44,365.933 254.573,383 254.573,425.667 
					"/>
	</g>
	<g>
		<polygon style="fill:#FF8800;" points="288.707,442.733 254.573,425.667 254.573,383 288.707,365.933 322.84,383 322.84,425.667 
					"/>
		<polygon style="fill:#FF8800;" points="322.84,383 288.707,365.933 288.707,323.267 322.84,306.2 356.973,323.267 
			356.973,365.933 		"/>
	</g>
	<path d="M305.773,212.333L305.773,212.333c-2.56,0-4.267,0-6.827-0.853c-16.213-3.413-27.307-17.92-27.307-34.987V75.8
		c0-9.387-7.68-17.067-17.067-17.067s-17.067,7.68-17.067,17.067V127c0,18.773-15.36,34.133-34.133,34.133
		c-2.56,0-4.267,0-6.827-0.853c-16.213-3.413-27.307-17.92-27.307-34.987V-1h170.667v179.2c0,9.387-3.413,17.92-10.24,23.893
		C323.693,208.92,315.16,212.333,305.773,212.333z M254.573,41.667c18.773,0,34.133,15.36,34.133,34.133v101.547
		c0,8.533,5.973,16.213,13.653,17.92c0.853,0,2.56,0,3.413,0l0,0c4.267,0,8.533-1.707,11.947-5.12s5.12-7.68,5.12-11.947V16.067
		H186.307v110.08c0,8.533,5.973,16.213,13.653,17.92c11.093,2.56,20.48-5.973,20.48-17.067V75.8
		C220.44,57.027,235.8,41.667,254.573,41.667z"/>
	<path d="M186.307,84.333H118.04c-23.893,0-42.667-18.773-42.667-42.667S94.147-1,118.04-1h68.267V84.333z M118.04,16.067
		c-14.507,0-25.6,11.093-25.6,25.6s11.093,25.6,25.6,25.6h51.2v-51.2H118.04z"/>
	<path d="M391.107,84.333H322.84V-1h68.267C415-1,433.773,17.773,433.773,41.667S415,84.333,391.107,84.333z M339.907,67.267h51.2
		c14.507,0,25.6-11.093,25.6-25.6s-11.093-25.6-25.6-25.6h-51.2V67.267z"/>
	<path d="M412.44,511H96.707c-21.333,0-38.4-17.067-38.4-38.4V156.867c0-21.333,17.067-38.4,38.4-38.4h14.507
		c3.413,0,6.827-3.413,6.827-6.827V67.267h68.267v58.88c0,8.533,5.973,16.213,13.653,17.92c5.12,0.853,10.24,0,14.507-3.413
		c4.267-3.413,5.973-7.68,5.973-12.8V75.8h17.067V127c0,10.24-4.267,19.627-12.8,26.453c-7.68,6.827-17.92,9.387-28.16,6.827
		c-16.213-3.413-27.307-17.92-27.307-34.987v-40.96h-34.133v27.307c0,12.8-11.093,23.893-23.893,23.893H96.707
		c-11.947,0-21.333,9.387-21.333,21.333v316.587c0,11.093,9.387,20.48,21.333,20.48h316.587c11.947,0,21.333-9.387,21.333-21.333
		V156.867c0-11.947-9.387-21.333-21.333-21.333h-14.507c-12.8,0-23.893-11.093-23.893-23.893V84.333H340.76V178.2
		c0,10.24-4.267,19.627-12.8,26.453c-7.68,6.827-17.92,9.387-28.16,6.827c-16.213-3.413-27.307-17.92-27.307-34.987V75.8h17.067
		v101.547c0,8.533,5.973,16.213,13.653,17.92c5.12,0.853,10.24,0,14.507-3.413c4.267-3.413,5.973-7.68,5.973-12.8V67.267h68.267
		v44.373c0,3.413,3.413,6.827,6.827,6.827h14.507c21.333,0,38.4,17.067,38.4,38.4v316.587C450.84,493.933,433.773,511,412.44,511z"
		/>
	<path d="M220.44,331.8c-1.707,0-2.56,0-3.413-0.853l-34.133-17.067c-3.413-1.707-5.12-4.267-5.12-7.68v-42.667
		c0-3.413,1.707-5.973,5.12-7.68l34.133-17.067c2.56-0.853,5.12-0.853,7.68,0l34.133,17.067c2.56,1.707,5.12,4.267,5.12,7.68V306.2
		c0,3.413-1.707,5.973-5.12,7.68l-34.133,17.067C223,331.8,222.147,331.8,220.44,331.8z M194.84,301.08l25.6,12.8l25.6-12.8v-32.427
		l-25.6-12.8l-25.6,12.8V301.08z"/>
	<path d="M288.707,331.8c-1.707,0-2.56,0-3.413-0.853L251.16,313.88c-3.413-1.707-5.12-4.267-5.12-7.68v-42.667
		c0-3.413,1.707-5.973,5.12-7.68l34.133-17.067c2.56-0.853,5.12-0.853,7.68,0l34.133,17.067c2.56,1.707,5.12,4.267,5.12,7.68V306.2
		c0,3.413-1.707,5.973-5.12,7.68l-34.133,17.067C291.267,331.8,290.413,331.8,288.707,331.8z M263.107,301.08l25.6,12.8l25.6-12.8
		v-32.427l-25.6-12.8l-25.6,12.8V301.08z"/>
	<path d="M186.307,391.533c-1.707,0-2.56,0-3.413-0.853l-34.133-17.067c-3.413-1.707-5.12-4.267-5.12-7.68v-42.667
		c0-3.413,1.707-5.973,5.12-7.68l34.133-17.067c2.56-0.853,5.12-0.853,7.68,0l34.133,17.067c2.56,1.707,5.12,4.267,5.12,7.68v42.667
		c0,3.413-1.707,5.973-5.12,7.68l-34.133,17.067C188.867,391.533,188.013,391.533,186.307,391.533z M160.707,360.813l25.6,12.8
		l25.6-12.8v-32.427l-25.6-12.8l-25.6,12.8V360.813z"/>
	<path d="M254.573,391.533c-1.707,0-2.56,0-3.413-0.853l-34.133-17.067c-3.413-1.707-5.12-4.267-5.12-7.68v-42.667
		c0-3.413,1.707-5.973,5.12-7.68l34.133-17.067c2.56-0.853,5.12-0.853,7.68,0l34.133,17.067c2.56,1.707,5.12,4.267,5.12,7.68v42.667
		c0,3.413-1.707,5.973-5.12,7.68L258.84,390.68C257.133,391.533,256.28,391.533,254.573,391.533z M228.973,360.813l25.6,12.8
		l25.6-12.8v-32.427l-25.6-12.8l-25.6,12.8V360.813z"/>
	<path d="M220.44,451.267c-1.707,0-2.56,0-3.413-0.853l-34.133-17.067c-3.413-1.707-5.12-4.267-5.12-7.68V383
		c0-3.413,1.707-5.973,5.12-7.68l34.133-17.067c2.56-0.853,5.12-0.853,7.68,0l34.133,17.067c2.56,1.707,5.12,4.267,5.12,7.68v42.667
		c0,3.413-1.707,5.973-5.12,7.68l-34.133,17.067C223,451.267,222.147,451.267,220.44,451.267z M194.84,420.547l25.6,12.8l25.6-12.8
		V388.12l-25.6-12.8l-25.6,12.8V420.547z"/>
	<path d="M288.707,451.267c-1.707,0-2.56,0-3.413-0.853l-34.133-17.067c-3.413-1.707-5.12-4.267-5.12-7.68V383
		c0-3.413,1.707-5.973,5.12-7.68l34.133-17.067c2.56-0.853,5.12-0.853,7.68,0l34.133,17.067c2.56,1.707,5.12,4.267,5.12,7.68v42.667
		c0,3.413-1.707,5.973-5.12,7.68l-34.133,17.067C291.267,451.267,290.413,451.267,288.707,451.267z M263.107,420.547l25.6,12.8
		l25.6-12.8V388.12l-25.6-12.8l-25.6,12.8V420.547z"/>
	<path d="M322.84,391.533c-1.707,0-2.56,0-3.413-0.853l-34.133-17.067c-3.413-1.707-5.12-4.267-5.12-7.68v-42.667
		c0-3.413,1.707-5.973,5.12-7.68l34.133-17.067c2.56-0.853,5.12-0.853,7.68,0l34.133,17.067c2.56,1.707,5.12,4.267,5.12,7.68v42.667
		c0,3.413-1.707,5.973-5.12,7.68l-34.133,17.067C325.4,391.533,324.547,391.533,322.84,391.533z M297.24,360.813l25.6,12.8
		l25.6-12.8v-32.427l-25.6-12.8l-25.6,12.8V360.813z"/>
</g>
</svg>