<?xml version="1.0" encoding="iso-8859-1"?>
<!-- Uploaded to: SVG Repo, www.svgrepo.com, Generator: SVG Repo Mixer Tools -->
<svg version="1.1" id="Layer_1" xmlns="http://www.w3.org/2000/svg" xmlns:xlink="http://www.w3.org/1999/xlink" 
	 viewBox="0 0 511.6 511.6" xml:space="preserve">
<polygon style="fill:#656D78;" points="287.775,468.961 287.775,373.036 223.824,373.036 223.824,468.961 63.949,468.961 
	63.949,511.6 223.824,511.6 287.775,511.6 447.65,511.6 447.65,468.961 "/>
<polygon style="fill:#CCD1D9;" points="309.085,468.961 287.775,468.961 287.775,373.036 223.824,373.036 223.824,468.961 
	202.497,468.961 202.497,511.6 223.824,511.6 287.775,511.6 309.085,511.6 "/>
<path style="fill:#A0D468;" d="M351.724,0c-43.902,0-83.685,17.697-112.568,46.354c-18.548-15.621-42.482-25.043-68.634-25.043
	c-58.86,0-106.572,47.721-106.572,106.58c0,8.041,0.89,15.863,2.576,23.389C28.446,159.82,0,193.825,0,234.48
	c0,47.08,38.173,85.27,85.262,85.27h330.413c26.386,0,95.925-31.975,95.925-159.883C511.599,71.576,440.015,0,351.724,0z"/>
<polygon style="fill:#434A54;" points="415.674,310.413 95.924,310.413 95.924,191.842 159.874,149.211 351.724,149.211 
	415.674,191.842 "/>
<rect x="95.919" y="191.84" style="fill:#656D78;" width="319.75" height="127.91"/>
<path style="fill:#A0D468;" d="M373.035,245.137c0,11.771-9.54,21.318-21.312,21.318s-21.327-9.547-21.327-21.318
	c0-11.772,9.556-21.319,21.327-21.319S373.035,233.364,373.035,245.137z"/>
<g>
	<path style="fill:#434A54;" d="M149.21,266.455c-2.731,0-5.448-1.046-7.541-3.122c-4.152-4.161-4.152-10.913,0-15.074
		l21.327-21.319c4.153-4.16,10.914-4.16,15.066,0c4.169,4.161,4.169,10.913,0,15.074l-21.312,21.319
		C154.659,265.409,151.943,266.455,149.21,266.455z"/>
	<path style="fill:#434A54;" d="M191.849,266.455c-2.732,0-5.464-1.046-7.541-3.122c-4.168-4.161-4.168-10.913,0-15.074
		l21.312-21.319c4.169-4.16,10.914-4.16,15.082,0c4.153,4.161,4.153,10.913,0,15.074l-21.327,21.319
		C197.298,265.409,194.566,266.455,191.849,266.455z"/>
	<path style="fill:#434A54;" d="M234.472,266.455c-2.717,0-5.448-1.046-7.525-3.122c-4.168-4.161-4.168-10.913,0-15.074
		l21.312-21.319c4.169-4.16,10.913-4.16,15.066,0c4.169,4.161,4.169,10.913,0,15.074l-21.312,21.319
		C239.937,265.409,237.204,266.455,234.472,266.455z"/>
</g>
<rect x="95.919" y="298.42" style="fill:#656D78;" width="319.75" height="127.9"/>
<rect x="95.919" y="299.77" style="fill:#434A54;" width="319.75" height="21.312"/>
<path style="fill:#A0D468;" d="M373.035,373.036c0,11.772-9.54,21.312-21.312,21.312s-21.327-9.539-21.327-21.312
	c0-11.771,9.556-21.312,21.327-21.312S373.035,361.265,373.035,373.036z"/>
<g>
	<path style="fill:#434A54;" d="M149.21,394.348c-2.731,0-5.448-1.03-7.541-3.122c-4.152-4.153-4.152-10.898,0-15.066l21.327-21.312
		c4.153-4.169,10.914-4.169,15.066,0c4.169,4.152,4.169,10.897,0,15.066l-21.312,21.312
		C154.659,393.318,151.943,394.348,149.21,394.348z"/>
	<path style="fill:#434A54;" d="M191.849,394.348c-2.732,0-5.464-1.03-7.541-3.122c-4.168-4.153-4.168-10.898,0-15.066
		l21.312-21.312c4.169-4.169,10.914-4.169,15.082,0c4.153,4.152,4.153,10.897,0,15.066l-21.327,21.312
		C197.298,393.318,194.566,394.348,191.849,394.348z"/>
	<path style="fill:#434A54;" d="M234.472,394.348c-2.717,0-5.448-1.03-7.525-3.122c-4.168-4.153-4.168-10.898,0-15.066
		l21.312-21.312c4.169-4.169,10.913-4.169,15.066,0c4.169,4.152,4.169,10.897,0,15.066l-21.312,21.312
		C239.937,393.318,237.204,394.348,234.472,394.348z"/>
</g>
<g>
	<rect x="202.499" y="468.63" style="fill:#E6E9ED;" width="106.59" height="21.312"/>
	<rect x="245.139" y="426.32" style="fill:#E6E9ED;" width="21.311" height="42.31"/>
</g>
</svg>