<?xml version="1.0" encoding="utf-8"?>
<!-- Uploaded to: SVG Repo, www.svgrepo.com, Generator: SVG Repo Mixer Tools -->
<!DOCTYPE svg PUBLIC "-//W3C//DTD SVG 1.1//EN" "http://www.w3.org/Graphics/SVG/1.1/DTD/svg11.dtd">
<svg xmlns="http://www.w3.org/2000/svg" xmlns:xlink="http://www.w3.org/1999/xlink" version="1.1" id="Layer_1"  width="512" height="512" viewBox="0 0 512 512" enable-background="new 0 0 512 512" xml:space="preserve">
<g id="phishing_site">
	<g>
		<path fill="#CCD1D9" d="M426.672,117.328V64c0-11.781-9.562-21.328-21.344-21.328h-384C9.547,42.672,0,52.219,0,64v53.328H426.672    z"/>
	</g>
	<g>
		<polygon fill="#E6E9ED" points="426.672,362.672 353.531,362.672 0,362.672 0,85.328 426.672,85.328 426.672,308.672   "/>
	</g>
	<path fill="#ED5564" d="M42.672,64c0,5.891-4.781,10.672-10.672,10.672S21.328,69.891,21.328,64S26.109,53.328,32,53.328   S42.672,58.109,42.672,64z"/>
	<path fill="#FFCE54" d="M74.672,64c0,5.891-4.781,10.672-10.672,10.672S53.328,69.891,53.328,64S58.109,53.328,64,53.328   S74.672,58.109,74.672,64z"/>
	<path fill="#A0D468" d="M106.672,64c0,5.891-4.781,10.672-10.672,10.672S85.328,69.891,85.328,64S90.109,53.328,96,53.328   S106.672,58.109,106.672,64z"/>
	<g>
		<rect x="42.672" y="298.672" fill="#ED5564" width="160" height="64"/>
	</g>
	<g>
		<rect x="224" y="298.672" fill="#ED5564" width="160" height="64"/>
	</g>
	<g>
		<rect x="42.672" y="128" fill="#ED5564" width="341.328" height="149.328"/>
	</g>
	<path fill="#434A54" d="M330.672,192H117.328c-5.891,0-10.656,4.781-10.656,10.672s4.766,10.656,10.656,10.656h213.344   c5.891,0,10.656-4.766,10.656-10.656S336.562,192,330.672,192z"/>
	<g>
		<rect x="469.328" fill="#FFCE54" width="21.344" height="288"/>
	</g>
	<path fill="#434A54" d="M469.328,330.672V448c0,23.531-19.141,42.672-42.656,42.672C403.141,490.672,384,471.531,384,448v-12.062   l15.359,10.234c0.016,0,0.016,0.016,0.031,0.016l0.031,0.016l0,0c1.688,1.141,3.719,1.797,5.906,1.797   c5.891,0,10.672-4.781,10.672-10.672c0-3.703-1.891-6.953-4.75-8.875l0,0l-31.938-21.281c-0.016-0.016-0.031-0.016-0.047-0.031   l-0.016-0.016l0,0c-1.688-1.125-3.734-1.797-5.922-1.797c-5.891,0-10.656,4.781-10.656,10.672l0,0v32l0,0c0,35.344,28.641,64,64,64   c35.344,0,64-28.656,64-64V330.672H469.328z"/>
	<path fill="#656D78" d="M480,277.328c-17.672,0-32,14.328-32,32s14.328,32,32,32s32-14.328,32-32S497.672,277.328,480,277.328z    M480,320c-5.875,0-10.672-4.781-10.672-10.672c0-5.875,4.797-10.656,10.672-10.656s10.672,4.781,10.672,10.656   C490.672,315.219,485.875,320,480,320z"/>
</g>
</svg>