<?xml version="1.0" ?>

<!DOCTYPE svg  PUBLIC '-//W3C//DTD SVG 1.1//EN'  'http://www.w3.org/Graphics/SVG/1.1/DTD/svg11.dtd'>

<!-- Uploaded to: SVG Repo, www.svgrepo.com, Generator: SVG Repo Mixer Tools -->
<svg fill="#000000" width="800px" height="800px" viewBox="0 0 1069 1069" style="fill-rule:evenodd;clip-rule:evenodd;stroke-linejoin:round;stroke-miterlimit:2;" version="1.1" xml:space="preserve" xmlns="http://www.w3.org/2000/svg" xmlns:serif="http://www.serif.com/" xmlns:xlink="http://www.w3.org/1999/xlink">

<rect height="1066.67" id="Radar" style="fill:none;" width="1066.67" x="1.397" y="1.665"/>

<g>

<path d="M534.731,87.082c-247.212,-0 -447.917,200.704 -447.917,447.916c0,247.212 200.705,447.917 447.917,447.917c247.212,0 447.916,-200.705 447.916,-447.917c0,-247.212 -200.704,-447.916 -447.916,-447.916Zm-0,62.5c212.717,-0 385.416,172.699 385.416,385.416c0,212.718 -172.699,385.417 -385.416,385.417c-212.718,0 -385.417,-172.699 -385.417,-385.417c0,-212.717 172.699,-385.416 385.417,-385.416Zm116.308,456.621c-23.872,40.161 -67.69,67.115 -117.76,67.115c-75.54,0 -136.868,-61.328 -136.868,-136.868c-0,-75.54 61.328,-136.868 136.868,-136.868c75.54,-0 136.868,61.328 136.868,136.868c0,17.247 14.003,31.25 31.25,31.25c17.248,0 31.25,-14.003 31.25,-31.25c0,-110.034 -89.334,-199.368 -199.368,-199.368c-110.034,-0 -199.368,89.334 -199.368,199.368c-0,110.035 89.334,199.368 199.368,199.368c72.903,0 136.728,-39.205 171.486,-97.68c8.812,-14.826 3.93,-34.018 -10.896,-42.83c-14.826,-8.813 -34.017,-3.931 -42.83,10.895Z" style="fill-opacity:0.5;"/>

<path d="M920.147,534.998c0,212.718 -172.699,385.417 -385.416,385.417c-212.718,0 -385.417,-172.699 -385.417,-385.417c0,-212.717 172.699,-385.416 385.417,-385.416c106.358,-0 202.709,43.18 272.473,112.943c12.195,12.196 31.998,12.196 44.194,0c12.196,-12.195 12.196,-31.998 -0,-44.194c-81.078,-81.078 -193.06,-131.249 -316.667,-131.249c-247.212,-0 -447.917,200.704 -447.917,447.916c0,247.212 200.705,447.917 447.917,447.917c247.212,0 447.916,-200.705 447.916,-447.917c0,-17.247 -14.002,-31.25 -31.25,-31.25c-17.247,0 -31.25,14.003 -31.25,31.25Zm-145.338,217.884c3.709,0.571 7.507,0.866 11.373,0.866c41.045,0 74.369,-33.323 74.369,-74.368c-0,-41.045 -33.324,-74.368 -74.369,-74.368c-17.165,-0 -32.979,5.828 -45.573,15.613l-133.861,-72.587c0.592,-3.778 0.899,-7.648 0.899,-11.588c0,-40.885 -33.064,-74.108 -73.887,-74.367l-0.481,-0.001c-41.045,-0 -74.368,33.323 -74.368,74.368c-0,41.045 33.323,74.368 74.368,74.368l0.481,-0.001c13.872,-0.088 26.849,-3.983 37.934,-10.69l140.19,76.019c-0.047,1.072 -0.07,2.15 -0.07,3.234c0,13.947 3.848,27.003 10.54,38.165c-47.679,49.762 -114.783,80.773 -189.075,80.773c-144.529,0 -261.868,-117.339 -261.868,-261.868c-0,-144.529 117.339,-261.868 261.868,-261.868c144.529,-0 261.868,117.339 261.868,261.868c0,17.247 14.003,31.25 31.25,31.25c17.248,0 31.25,-14.003 31.25,-31.25c0,-179.024 -145.344,-324.368 -324.368,-324.368c-179.024,-0 -324.368,145.344 -324.368,324.368c-0,179.024 145.344,324.368 324.368,324.368c95.897,0 182.134,-41.696 241.53,-107.936Zm-241.53,-228.3c-6.55,-0 -11.868,5.318 -11.868,11.868c-0,6.55 5.318,11.868 11.868,11.868l0.306,-0.003c3.629,-0.092 6.855,-1.817 8.97,-4.466c0.135,-0.183 0.272,-0.364 0.41,-0.543c1.374,-1.936 2.182,-4.303 2.182,-6.856c0,-6.448 -5.153,-11.702 -11.562,-11.864l-0.306,-0.004Z"/>

</g>

</svg>