<?xml version="1.0" encoding="iso-8859-1"?>

<!DOCTYPE svg PUBLIC "-//W3C//DTD SVG 1.1//EN" "http://www.w3.org/Graphics/SVG/1.1/DTD/svg11.dtd">
<!-- Uploaded to: SVG Repo, www.svgrepo.com, Generator: SVG Repo Mixer Tools -->
<svg version="1.1" id="_x36_" xmlns="http://www.w3.org/2000/svg" xmlns:xlink="http://www.w3.org/1999/xlink" 
	 viewBox="0 0 512 512"  xml:space="preserve">
<g>
	<path style="fill:#9F9E9F;" d="M333.337,457.194c0,1.963-0.218,3.853-0.582,5.67c-1.09,6.178-4.143,11.702-8.431,15.919
		c-0.218,0.217-0.509,0.508-0.8,0.726c-5.451,5.089-12.72,8.287-20.788,8.287H52.552c-8.068,0-15.337-3.199-20.788-8.287
		c-4.725-4.36-8.069-10.103-9.231-16.644c-0.363-1.817-0.582-3.707-0.582-5.67c0-5.523,1.527-10.757,4.143-15.264
		c1.308-2.327,2.98-4.434,4.87-6.324c5.524-5.524,13.156-8.94,21.588-8.94h250.185C319.6,426.667,333.337,440.405,333.337,457.194z"
		/>
	<path style="fill:#E4E3E3;" d="M344.822,482.417v26.675c0,1.599-1.309,2.908-2.908,2.908H13.374c-1.599,0-2.907-1.309-2.907-2.908
		v-26.675c0-1.6,1.308-2.909,2.907-2.909h328.54C343.513,479.509,344.822,480.818,344.822,482.417z"/>
	<path style="fill:#E4E3E3;" d="M344.822,414.237v36.27c0,6.687-5.452,12.212-12.066,12.357c-0.146,0.073-0.291,0.073-0.436,0.073
		H22.969c-0.146,0-0.291,0-0.436-0.073c-6.614-0.146-12.066-5.67-12.066-12.357v-36.27c0-6.832,5.669-12.429,12.502-12.429H332.32
		C339.152,401.808,344.822,407.405,344.822,414.237z"/>
	<rect x="24.677" y="412.319" style="fill:#9B9B9B;" width="117.478" height="29.608"/>
	<path style="fill:#3B4045;" d="M355.288,11.558V415.11c0,6.033-4.579,10.976-10.466,11.484c-0.364,0.073-0.727,0.073-1.09,0.073
		H11.557c-0.363,0-0.727,0-1.09-0.073C4.579,426.086,0,421.143,0,415.11V11.558C0,5.233,5.16,0,11.557,0h332.175
		C350.128,0,355.288,5.233,355.288,11.558z"/>
	<g>
		<g>
			<rect x="10.501" y="50.572" style="fill:#474747;" width="171.637" height="24.355"/>
			<rect x="182.138" y="50.572" style="fill:#347583;" width="162.65" height="24.355"/>
		</g>
		<polygon style="opacity:0.1;fill:#FDFEFE;" points="182.138,70.868 10.501,70.868 10.501,87.105 182.138,87.105 344.788,87.105 
			344.788,70.868 		"/>
	</g>
	<g>
		<g>
			<rect x="10.501" y="121.25" style="fill:#474747;" width="171.637" height="24.355"/>
			<rect x="182.138" y="121.25" style="fill:#347583;" width="162.65" height="24.355"/>
		</g>
		<polygon style="opacity:0.1;fill:#FDFEFE;" points="182.138,141.546 10.501,141.546 10.501,157.783 182.138,157.783 
			344.788,157.783 344.788,141.546 		"/>
	</g>
	<g>
		<g>
			<rect x="10.501" y="191.928" style="fill:#474747;" width="171.637" height="24.355"/>
			<rect x="182.138" y="191.928" style="fill:#347583;" width="162.65" height="24.355"/>
		</g>
		<polygon style="opacity:0.1;fill:#FDFEFE;" points="182.138,212.224 10.501,212.224 10.501,228.461 182.138,228.461 
			344.788,228.461 344.788,212.224 		"/>
	</g>
	<g style="opacity:0.8;">
		<path style="fill:#FFFFFF;" d="M177.64,351.595c-15.558,0-30.94-1.108-47.024-3.389l-2.504-0.356l-0.651-2.444
			c-6.456-24.247-6.456-43.142,0-67.391l0.651-2.444l2.504-0.356c16.084-2.28,31.466-3.389,47.024-3.389s30.942,1.11,47.032,3.389
			l2.505,0.356l0.651,2.444c6.456,24.249,6.456,43.142,0,67.391l-0.651,2.444l-2.504,0.356
			C208.582,350.487,193.198,351.595,177.64,351.595z"/>
		<path style="fill:#3B4045;" d="M224.136,344.422c-31.52,4.47-61.463,4.471-92.982,0c-6.248-23.461-6.248-41.964,0-65.425
			c31.52-4.469,61.462-4.469,92.982,0C230.383,302.459,230.384,320.961,224.136,344.422z"/>
		<path style="fill:#FFFFFF;" d="M177.642,332.082c-10.21,0-18.516-8.306-18.516-18.516c0-6.635,3.583-12.803,9.352-16.096
			c1.525-0.87,3.469-0.34,4.341,1.186c0.871,1.526,0.34,3.469-1.186,4.341c-3.79,2.163-6.144,6.213-6.144,10.57
			c0,6.701,5.452,12.153,12.153,12.153c6.704,0,12.158-5.452,12.158-12.153c0-4.358-2.356-8.41-6.149-10.575
			c-1.526-0.871-2.057-2.814-1.185-4.34c0.871-1.526,2.815-2.057,4.34-1.185c5.772,3.295,9.357,9.464,9.357,16.1
			C196.163,323.775,187.855,332.082,177.642,332.082z"/>
	</g>
	<path style="fill:#FFFFFF;" d="M177.645,315.18c-1.619,0-2.937-1.317-2.937-2.937v-17.967c0-1.619,1.317-2.937,2.937-2.937
		c1.619,0,2.937,1.317,2.937,2.937v17.967C180.581,313.862,179.264,315.18,177.645,315.18z"/>
	<circle style="fill:#347583;" cx="236.074" cy="393.535" r="13.372"/>
	<circle style="fill:#347583;" cx="276.834" cy="393.535" r="13.372"/>
	<circle style="fill:#347583;" cx="317.595" cy="393.535" r="13.371"/>
</g>
</svg>