<?xml version="1.0" encoding="iso-8859-1"?>
<!-- Uploaded to: SVG Repo, www.svgrepo.com, Generator: SVG Repo Mixer Tools -->
<svg version="1.1" id="Layer_1" xmlns="http://www.w3.org/2000/svg" xmlns:xlink="http://www.w3.org/1999/xlink" 
	 viewBox="0 0 512 512" xml:space="preserve">
<rect x="299.956" y="460.255" style="fill:#111449;" width="203.874" height="32.681"/>
<rect x="8.17" y="460.255" style="fill:#27467A;" width="203.874" height="32.681"/>
<polygon style="fill:#2F5E88;" points="281.241,366.189 281.241,409.763 256,431.551 230.759,409.763 230.759,366.189 "/>
<rect x="230.759" y="409.763" style="fill:#367596;" width="50.481" height="54.468"/>
<rect x="201.151" y="453.338" style="fill:#78E3EC;" width="109.699" height="50.492"/>
<rect x="22.887" y="80.308" style="fill:#111449;" width="466.225" height="288.452"/>
<path style="fill:#27467A;" d="M487.871,283.162h-32.679h-0.002H24.129c-8.813,0-15.959,7.146-15.959,15.959v72.9
	c0,8.813,7.146,15.959,15.959,15.959H56.81h398.38h0.001h32.68c8.813,0,15.959-7.146,15.959-15.959v-72.9
	C503.83,290.308,496.684,283.162,487.871,283.162z"/>
<circle style="fill:#FFFFFF;" cx="451.933" cy="335.567" r="16.34"/>
<circle style="fill:#FFCD60;" cx="379.348" cy="335.567" r="16.34"/>
<path style="fill:#27467A;" d="M487.871,145.665H455.19H24.129c-8.813,0-15.959,7.146-15.959,15.959v72.9
	c0,8.813,7.146,15.959,15.959,15.959h431.06h32.681c8.813,0,15.959-7.146,15.959-15.959v-72.9
	C503.83,152.811,496.684,145.665,487.871,145.665z"/>
<circle style="fill:#FFFFFF;" cx="451.933" cy="198.068" r="16.34"/>
<circle style="fill:#FFCD60;" cx="379.348" cy="198.068" r="16.34"/>
<path style="fill:#27467A;" d="M487.871,8.17H455.19H24.129c-8.813,0-15.959,7.146-15.959,15.959v72.9
	c0,8.813,7.146,15.959,15.959,15.959h431.06h32.681c8.813,0,15.959-7.146,15.959-15.959v-72.9
	C503.83,15.316,496.684,8.17,487.871,8.17z"/>
<circle style="fill:#FFFFFF;" cx="451.933" cy="60.578" r="16.34"/>
<circle style="fill:#FFCD60;" cx="379.348" cy="60.578" r="16.34"/>
<path d="M487.872,121.157H24.128C10.824,121.157,0,110.333,0,97.028V24.127C0,10.824,10.824,0,24.128,0h463.743
	C501.176,0,512,10.824,512,24.127v72.901C512,110.333,501.176,121.157,487.872,121.157z M24.128,16.34
	c-4.294,0-7.788,3.494-7.788,7.787v72.901c0,4.293,3.494,7.787,7.788,7.787h463.743c4.294,0,7.788-3.494,7.788-7.787V24.127
	c0-4.293-3.494-7.787-7.788-7.787C487.872,16.34,24.128,16.34,24.128,16.34z"/>
<path d="M310.538,206.246H60.578c-4.512,0-8.17-3.657-8.17-8.17s3.658-8.17,8.17-8.17h249.959c4.512,0,8.17,3.657,8.17,8.17
	S315.05,206.246,310.538,206.246z"/>
<path d="M451.422,222.586c-13.516,0-24.511-10.996-24.511-24.511c0-13.515,10.995-24.511,24.511-24.511s24.511,10.996,24.511,24.511
	C475.932,211.59,464.937,222.586,451.422,222.586z M451.422,189.905c-4.506,0-8.17,3.665-8.17,8.17s3.665,8.17,8.17,8.17
	s8.17-3.665,8.17-8.17S455.927,189.905,451.422,189.905z"/>
<path d="M379.286,222.586c-13.516,0-24.511-10.996-24.511-24.511c0-13.515,10.995-24.511,24.511-24.511
	c13.516,0,24.511,10.996,24.511,24.511C403.797,211.59,392.802,222.586,379.286,222.586z M379.286,189.905
	c-4.506,0-8.17,3.665-8.17,8.17s3.665,8.17,8.17,8.17s8.17-3.665,8.17-8.17S383.792,189.905,379.286,189.905z"/>
<path d="M487.872,258.654H24.128C10.824,258.654,0,247.83,0,234.525v-72.9c0-13.304,10.824-24.128,24.128-24.128h463.743
	c13.304,0,24.128,10.825,24.128,24.128v72.9C512,247.83,501.176,258.654,487.872,258.654z M24.128,153.837
	c-4.294,0-7.788,3.494-7.788,7.788v72.9c0,4.293,3.494,7.787,7.788,7.787h463.743c4.294,0,7.788-3.494,7.788-7.787v-72.9
	c0-4.294-3.494-7.788-7.788-7.788H24.128z"/>
<path d="M310.538,343.743H60.578c-4.512,0-8.17-3.657-8.17-8.17c0-4.513,3.658-8.17,8.17-8.17h249.959c4.512,0,8.17,3.657,8.17,8.17
	S315.05,343.743,310.538,343.743z"/>
<path d="M451.422,360.083c-13.516,0-24.511-10.996-24.511-24.511c0-13.515,10.995-24.511,24.511-24.511s24.511,10.996,24.511,24.511
	S464.937,360.083,451.422,360.083z M451.422,327.402c-4.506,0-8.17,3.665-8.17,8.17s3.665,8.17,8.17,8.17s8.17-3.665,8.17-8.17
	C459.592,331.067,455.927,327.402,451.422,327.402z"/>
<path d="M379.286,360.083c-13.516,0-24.511-10.996-24.511-24.511c0-13.515,10.995-24.511,24.511-24.511
	c13.516,0,24.511,10.996,24.511,24.511S392.802,360.083,379.286,360.083z M379.286,327.402c-4.506,0-8.17,3.665-8.17,8.17
	s3.665,8.17,8.17,8.17s8.17-3.665,8.17-8.17C387.457,331.067,383.792,327.402,379.286,327.402z"/>
<path d="M487.872,396.151H24.128C10.824,396.151,0,385.327,0,372.022v-72.9c0-13.304,10.824-24.128,24.128-24.128h463.743
	c13.304,0,24.128,10.825,24.128,24.128v72.9C512,385.327,501.176,396.151,487.872,396.151z M24.128,291.333
	c-4.294,0-7.788,3.494-7.788,7.789v72.9c0,4.294,3.494,7.788,7.788,7.788h463.743c4.294,0,7.788-3.494,7.788-7.788v-72.9
	c0-4.294-3.494-7.789-7.788-7.789L24.128,291.333L24.128,291.333z"/>
<path d="M310.853,512H201.148c-4.512,0-8.17-3.657-8.17-8.17v-50.488c0-4.513,3.658-8.17,8.17-8.17h47.414
	c4.512,0,8.17,3.657,8.17,8.17c0,4.513-3.658,8.17-8.17,8.17h-39.244v34.147h93.364v-34.147h-21.439c-4.512,0-8.17-3.657-8.17-8.17
	v-32.681c0-4.513,3.658-8.17,8.17-8.17s8.17,3.657,8.17,8.17v24.511h21.439c4.512,0,8.17,3.657,8.17,8.17v50.488
	C319.023,508.343,315.365,512,310.853,512z"/>
<path d="M230.756,461.512c-4.512,0-8.17-3.657-8.17-8.17v-32.681c0-4.513,3.658-8.17,8.17-8.17s8.17,3.657,8.17,8.17v32.681
	C238.926,457.855,235.268,461.512,230.756,461.512z"/>
<path d="M503.83,501.106H310.853c-4.512,0-8.17-3.657-8.17-8.17c0-4.513,3.658-8.17,8.17-8.17H503.83c4.512,0,8.17,3.657,8.17,8.17
	C512,497.449,508.342,501.106,503.83,501.106z"/>
<path d="M503.83,468.426H310.853c-4.512,0-8.17-3.657-8.17-8.17c0-4.513,3.658-8.17,8.17-8.17H503.83c4.512,0,8.17,3.657,8.17,8.17
	C512,464.769,508.342,468.426,503.83,468.426z"/>
<path d="M201.148,501.106H8.17c-4.512,0-8.17-3.657-8.17-8.17c0-4.513,3.658-8.17,8.17-8.17h192.978c4.512,0,8.17,3.657,8.17,8.17
	C209.319,497.449,205.661,501.106,201.148,501.106z"/>
<path d="M201.148,468.426H8.17c-4.512,0-8.17-3.657-8.17-8.17c0-4.513,3.658-8.17,8.17-8.17h192.978c4.512,0,8.17,3.657,8.17,8.17
	C209.319,464.769,205.661,468.426,201.148,468.426z"/>
<path d="M310.538,68.749H60.578c-4.512,0-8.17-3.657-8.17-8.17s3.658-8.17,8.17-8.17h249.959c4.512,0,8.17,3.657,8.17,8.17
	S315.05,68.749,310.538,68.749z"/>
<path d="M451.422,85.089c-13.516,0-24.511-10.996-24.511-24.511s10.995-24.511,24.511-24.511s24.511,10.996,24.511,24.511
	C475.932,74.094,464.937,85.089,451.422,85.089z M451.422,52.408c-4.506,0-8.17,3.665-8.17,8.17s3.665,8.17,8.17,8.17
	s8.17-3.665,8.17-8.17C459.592,56.074,455.927,52.408,451.422,52.408z"/>
<path d="M379.286,85.089c-13.516,0-24.511-10.996-24.511-24.511s10.995-24.511,24.511-24.511c13.516,0,24.511,10.996,24.511,24.511
	C403.797,74.094,392.802,85.089,379.286,85.089z M379.286,52.408c-4.506,0-8.17,3.665-8.17,8.17s3.665,8.17,8.17,8.17
	s8.17-3.665,8.17-8.17C387.457,56.074,383.792,52.408,379.286,52.408z"/>
</svg>