<?xml version="1.0" encoding="iso-8859-1"?>
<!-- Uploaded to: SVG Repo, www.svgrepo.com, Generator: SVG Repo Mixer Tools -->
<svg height="800px" width="800px" version="1.1" id="Layer_1" xmlns="http://www.w3.org/2000/svg" xmlns:xlink="http://www.w3.org/1999/xlink" 
	 viewBox="0 0 512 512" xml:space="preserve">
<g transform="translate(1 1)">
	<g>
		<path style="fill:#FFE100;" d="M163.881,146.525c-5.207,0-8.678-3.471-8.678-8.678v-8.678c0-5.207,3.471-8.678,8.678-8.678
			c5.207,0,8.678,3.471,8.678,8.678v8.678C172.559,143.054,169.088,146.525,163.881,146.525z"/>
		<path style="fill:#FFE100;" d="M198.593,163.881c-5.207,0-8.678-3.471-8.678-8.678v-8.678c0-5.207,3.471-8.678,8.678-8.678
			c5.207,0,8.678,3.471,8.678,8.678v8.678C207.271,160.41,203.8,163.881,198.593,163.881z"/>
		<path style="fill:#FFE100;" d="M233.305,146.525c-5.207,0-8.678-3.471-8.678-8.678v-8.678c0-5.207,3.471-8.678,8.678-8.678
			s8.678,3.471,8.678,8.678v8.678C241.983,143.054,238.512,146.525,233.305,146.525z"/>
		<path style="fill:#FFE100;" d="M155.203,94.458L155.203,94.458c-9.546,0-17.356-7.81-17.356-17.356V42.39
			c0-9.546,7.81-17.356,17.356-17.356c9.546,0,17.356,7.81,17.356,17.356v34.712C172.559,86.647,164.749,94.458,155.203,94.458"/>
		<path style="fill:#FFE100;" d="M224.627,94.458L224.627,94.458c-9.546,0-17.356-7.81-17.356-17.356V42.39
			c0-9.546,7.81-17.356,17.356-17.356s17.356,7.81,17.356,17.356v34.712C241.983,86.647,234.173,94.458,224.627,94.458"/>
		<path style="fill:#FFE100;" d="M189.915,111.814L189.915,111.814c-9.546,0-17.356-7.81-17.356-17.356V25.034
			c0-9.546,7.81-17.356,17.356-17.356s17.356,7.81,17.356,17.356v69.424C207.271,104.003,199.461,111.814,189.915,111.814"/>
		<path style="fill:#FFE100;" d="M484.966,77.102H241.983V42.39h242.983c9.546,0,17.356,7.81,17.356,17.356
			S494.512,77.102,484.966,77.102"/>
		<path style="fill:#FFE100;" d="M354.797,215.949H25.034c-9.546,0-17.356-7.81-17.356-17.356c0-9.546,7.81-17.356,17.356-17.356
			h329.763c9.546,0,17.356,7.81,17.356,17.356C372.153,208.139,364.342,215.949,354.797,215.949"/>
	</g>
	<path style="fill:#FFA800;" d="M354.797,181.237h-26.034c9.546,0,17.356,7.81,17.356,17.356c0,9.546-7.81,17.356-17.356,17.356
		h26.034c9.546,0,17.356-7.81,17.356-17.356C372.153,189.047,364.342,181.237,354.797,181.237"/>
	<path style="fill:#FFE100;" d="M337.441,276.695c-27.77-41.654,17.356-60.746,17.356-60.746H189.915H25.034
		c0,0,45.125,19.092,17.356,60.746c0,0-34.712,41.654-34.712,112.814v52.068c0,0,6.075,60.746,69.424,60.746h112.814h112.814
		c63.349,0,69.424-60.746,69.424-60.746v-52.068C372.153,318.349,337.441,276.695,337.441,276.695"/>
	<path style="fill:#FFA800;" d="M337.441,276.695c-27.77-41.654,17.356-60.746,17.356-60.746h-26.034
		c0,0-45.125,19.092-17.356,60.746c0,0,34.712,41.654,34.712,112.814v52.068c0,0-6.075,60.746-69.424,60.746h26.034
		c63.349,0,69.424-60.746,69.424-60.746v-52.068C372.153,318.349,337.441,276.695,337.441,276.695"/>
	<g>
		<path style="fill:#FFFFFF;" d="M25.034,181.237h26.034c-9.546,0-17.356,7.81-17.356,17.356c0,9.546,7.81,17.356,17.356,17.356
			H25.034c-9.546,0-17.356-7.81-17.356-17.356C7.678,189.047,15.488,181.237,25.034,181.237"/>
		<path style="fill:#FFFFFF;" d="M42.39,276.695c27.769-41.654-17.356-60.746-17.356-60.746h26.034c0,0,45.125,19.092,17.356,60.746
			c0,0-34.712,41.654-34.712,112.814v52.068c0,0,6.075,60.746,69.424,60.746H77.102c-63.349,0-69.424-60.746-69.424-60.746v-52.068
			C7.678,318.349,42.39,276.695,42.39,276.695"/>
	</g>
	<path d="M354.797,224.627H25.034C10.281,224.627-1,213.346-1,198.593s11.281-26.034,26.034-26.034h329.763
		c14.753,0,26.034,11.281,26.034,26.034S369.549,224.627,354.797,224.627z M25.034,189.915c-5.207,0-8.678,3.471-8.678,8.678
		c0,5.207,3.471,8.678,8.678,8.678h329.763c5.207,0,8.678-3.471,8.678-8.678c0-5.207-3.471-8.678-8.678-8.678H25.034z"/>
	<path d="M302.729,511H77.102C20.695,511,1.603,465.875-1,442.444v-52.936c0-70.292,32.108-112.814,36.447-118.02
		c6.942-10.414,8.678-19.092,6.075-26.902c-4.339-13.885-19.959-20.827-19.959-20.827c-3.471-1.736-6.075-6.075-5.207-9.546
		c0.868-4.339,4.339-6.942,8.678-6.942h329.763c4.339,0,7.81,2.603,8.678,6.942c0.868,4.339-1.736,7.81-5.207,9.546
		c0,0-16.488,6.942-19.959,20.827c-2.603,7.81,0,17.356,6.075,26.902c4.339,5.207,36.447,47.729,36.447,118.02v52.068
		C378.227,465.875,359.136,511,302.729,511z M16.356,440.708c0.868,5.207,7.81,52.936,60.746,52.936h225.627
		c54.671,0,60.746-50.332,60.746-52.936v-51.2c0-66.82-32.108-106.739-32.976-107.607c0,0,0-0.868-0.868-0.868
		c-9.546-14.753-13.017-28.637-8.678-41.654c1.736-6.075,4.339-10.414,7.81-14.753H50.2c3.471,4.339,6.075,8.678,7.81,14.753
		c4.339,13.017,0.868,26.902-8.678,41.654c0,0,0,0.868-0.868,0.868c0,0-32.976,40.786-32.976,107.607v51.2H16.356z"/>
	<path d="M146.525,467.61H85.78c-18.224,0-39.919-9.546-43.39-35.58v-0.868v-67.688c0-5.207,3.471-8.678,8.678-8.678
		s8.678,3.471,8.678,8.678v66.82c2.603,18.224,19.092,19.959,26.034,19.959h60.746c5.207,0,8.678,3.471,8.678,8.678
		C155.203,464.139,151.732,467.61,146.525,467.61z"/>
	<path d="M155.203,103.136c-14.753,0-26.034-11.281-26.034-26.034V42.39c0-14.753,11.281-26.034,26.034-26.034
		c14.753,0,26.034,11.281,26.034,26.034v34.712C181.237,91.854,169.956,103.136,155.203,103.136z M155.203,33.712
		c-5.207,0-8.678,3.471-8.678,8.678v34.712c0,5.207,3.471,8.678,8.678,8.678c5.207,0,8.678-3.471,8.678-8.678V42.39
		C163.881,37.183,160.41,33.712,155.203,33.712z"/>
	<path d="M224.627,103.136c-14.753,0-26.034-11.281-26.034-26.034V42.39c0-14.753,11.281-26.034,26.034-26.034
		s26.034,11.281,26.034,26.034v34.712C250.661,91.854,239.38,103.136,224.627,103.136z M224.627,33.712
		c-5.207,0-8.678,3.471-8.678,8.678v34.712c0,5.207,3.471,8.678,8.678,8.678s8.678-3.471,8.678-8.678V42.39
		C233.305,37.183,229.834,33.712,224.627,33.712z"/>
	<path d="M189.915,120.492c-14.753,0-26.034-11.281-26.034-26.034V25.034C163.881,10.281,175.163-1,189.915-1
		s26.034,11.281,26.034,26.034v69.424C215.949,109.21,204.668,120.492,189.915,120.492z M189.915,16.356
		c-5.207,0-8.678,3.471-8.678,8.678v69.424c0,5.207,3.471,8.678,8.678,8.678s8.678-3.471,8.678-8.678V25.034
		C198.593,19.827,195.122,16.356,189.915,16.356z"/>
	<path d="M484.966,85.78H241.983c-5.207,0-8.678-3.471-8.678-8.678V42.39c0-5.207,3.471-8.678,8.678-8.678h242.983
		c14.753,0,26.034,11.281,26.034,26.034S499.719,85.78,484.966,85.78z M250.661,68.424h234.305c5.207,0,8.678-3.471,8.678-8.678
		s-3.471-8.678-8.678-8.678H250.661V68.424z"/>
	<path d="M155.203,146.525c-5.207,0-8.678-3.471-8.678-8.678v-8.678c0-5.207,3.471-8.678,8.678-8.678
		c5.207,0,8.678,3.471,8.678,8.678v8.678C163.881,143.054,160.41,146.525,155.203,146.525z"/>
	<path d="M189.915,163.881c-5.207,0-8.678-3.471-8.678-8.678v-8.678c0-5.207,3.471-8.678,8.678-8.678s8.678,3.471,8.678,8.678v8.678
		C198.593,160.41,195.122,163.881,189.915,163.881z"/>
	<path d="M224.627,146.525c-5.207,0-8.678-3.471-8.678-8.678v-8.678c0-5.207,3.471-8.678,8.678-8.678s8.678,3.471,8.678,8.678v8.678
		C233.305,143.054,229.834,146.525,224.627,146.525z"/>
</g>
</svg>