<?xml version="1.0" encoding="iso-8859-1"?>
<!-- Uploaded to: SVG Repo, www.svgrepo.com, Generator: SVG Repo Mixer Tools -->
<svg version="1.1" id="Layer_1" xmlns="http://www.w3.org/2000/svg" xmlns:xlink="http://www.w3.org/1999/xlink" 
	 viewBox="0 0 511.999 511.999" xml:space="preserve">
<path style="fill:#111449;" d="M62.327,324.285c72.337,72.337,189.618,72.337,261.956,0l-112.595-149.36L62.327,62.329
	C-10.01,134.667-10.01,251.949,62.327,324.285z"/>
<path style="fill:#2F5E88;" d="M62.327,62.329l261.956,261.956c72.338-72.337,72.338-189.618,0-261.956
	C251.946-10.007,134.664-10.007,62.327,62.329z"/>
<path style="fill:#78E3EC;" d="M93.149,93.152l200.312,200.312c55.314-55.314,55.314-144.998,0-200.312
	S148.463,37.837,93.149,93.152z"/>
<path style="fill:#D0FBFD;" d="M274.913,111.699C219.599,56.385,138.22,48.08,93.149,93.152
	c-55.314,55.314-55.314,144.998,0,200.312s144.998,55.314,200.312,0C338.533,248.392,330.228,167.014,274.913,111.699z"/>
<polygon style="fill:#FF754F;" points="370.51,339.689 503.833,473.013 488.425,488.421 414.058,429.464 355.101,355.098 "/>
<rect x="319.792" y="418.57" transform="matrix(0.7071 0.7071 -0.7071 0.7071 424.9545 -167.0006)" style="fill:#FF4719;" width="188.546" height="21.791"/>
<path style="fill:#A0F6FA;" d="M193.305,102.33c-49.64,0-89.888,40.248-89.888,89.888h134.832
	C238.249,142.578,218.125,102.33,193.305,102.33z"/>
<path style="fill:#25BBCC;" d="M193.305,282.107c24.82,0,44.944-40.248,44.944-89.888h44.944
	C283.193,241.858,242.945,282.107,193.305,282.107z"/>
<path style="fill:#78E3EC;" d="M103.417,192.218c0,49.64,40.248,89.888,89.888,89.888c24.82,0,44.944-40.248,44.944-89.888
	L103.417,192.218L103.417,192.218z"/>
<path style="fill:#50D1DD;" d="M238.249,192.218c0-49.64-20.124-89.888-44.944-89.888c49.64,0,89.888,40.248,89.888,89.888H238.249z
	"/>
<path d="M509.606,467.232L376.282,333.908c-3.191-3.191-8.366-3.191-11.557,0l-9.631,9.631l-19.392-19.392
	c69.694-75.774,67.822-194.126-5.647-267.593c-75.405-75.405-198.097-75.405-273.502,0s-75.405,198.097,0,273.502
	c37.702,37.703,87.226,56.553,136.751,56.553c46.98,0,93.954-16.977,130.842-50.906l19.392,19.392l-9.631,9.631
	c-3.191,3.191-3.191,8.366,0,11.557l133.323,133.323c1.595,1.595,3.687,2.394,5.778,2.394s4.183-0.798,5.778-2.394l30.817-30.817
	C512.797,475.597,512.797,470.423,509.606,467.232z M68.11,318.499c-69.032-69.033-69.032-181.357,0-250.39
	c34.516-34.516,79.856-51.775,125.195-51.775S283.984,33.592,318.5,68.108c69.032,69.033,69.032,181.357,0,250.39
	C249.467,387.532,137.142,387.532,68.11,318.499z M473.01,492.271L351.243,370.503l19.261-19.261l121.766,121.767L473.01,492.271z"
	/>
<path d="M193.305,87.073c-58.577,0-106.232,47.655-106.232,106.232s47.655,106.232,106.232,106.232s106.231-47.655,106.231-106.232
	S251.88,87.073,193.305,87.073z M282.804,185.133h-32.458c-1.173-29.953-8.757-56.086-20.285-73.826
	C258.981,124.323,279.819,152.18,282.804,185.133z M185.133,105.475v79.658H152.63c0.929-21.838,5.569-42.021,13.315-57.513
	C171.477,116.554,178.191,108.909,185.133,105.475z M185.133,201.476v79.658c-6.942-3.434-13.656-11.08-19.188-22.145
	c-7.746-15.492-12.385-35.675-13.315-57.513L185.133,201.476L185.133,201.476z M201.476,281.134v-79.658h32.504
	c-0.929,21.838-5.569,42.021-13.314,57.513C215.132,270.054,208.418,277.7,201.476,281.134z M201.476,185.133v-79.658
	c6.942,3.434,13.656,11.08,19.189,22.145c7.746,15.491,12.385,35.675,13.314,57.513L201.476,185.133L201.476,185.133z
	 M156.548,111.307c-11.529,17.74-19.112,43.872-20.285,73.826h-32.458C106.79,152.18,127.628,124.323,156.548,111.307z
	 M103.804,201.476h32.458c1.173,29.953,8.757,56.086,20.285,73.826C127.628,262.285,106.79,234.428,103.804,201.476z
	 M230.061,275.301c11.529-17.74,19.112-43.872,20.285-73.826h32.458C279.819,234.428,258.981,262.285,230.061,275.301z"/>
<path d="M310.749,100.292c-2.807-3.535-7.945-4.125-11.481-1.319c-3.535,2.806-4.125,7.946-1.319,11.481
	c42.123,53.061,37.709,129.253-10.267,177.229c-52.04,52.04-136.715,52.04-188.755,0s-52.04-136.716,0-188.755
	c47.976-47.977,124.168-52.389,177.229-10.267c3.533,2.806,8.674,2.215,11.481-1.319c2.807-3.535,2.215-8.675-1.319-11.481
	c-59.568-47.289-145.096-42.34-198.947,11.51c-58.412,58.412-58.412,153.456,0,211.868c29.207,29.207,67.57,43.809,105.934,43.809
	s76.727-14.603,105.934-43.809C353.089,245.387,358.038,159.859,310.749,100.292z"/>
</svg>