<?xml version="1.0" encoding="utf-8"?>
<!-- Uploaded to: SVG Repo, www.svgrepo.com, Generator: SVG Repo Mixer Tools -->
<svg width="800px" height="800px" viewBox="0 0 1024 1024" class="icon"  version="1.1" xmlns="http://www.w3.org/2000/svg"><path d="M640 277.333333H384c-141.376 0-256 106.666667-256 256s213.333333 362.666667 213.333333 362.666667h341.333334s213.333333-213.333333 213.333333-362.666667-114.624-256-256-256z" fill="#FFD54F" /><path d="M256 256.021333h512v85.333334H256z" fill="#FFD54F" /><path d="M359.338667 853.333333h305.322666C726.869333 787.882667 853.333333 633.984 853.333333 533.333333c0-59.328-21.930667-111.424-58.389333-149.333333H229.077333C192.597333 421.909333 170.666667 474.005333 170.666667 533.333333c0 100.885333 126.464 254.634667 188.672 320z" fill="#FF9800" /><path d="M485.312 640L448 576l37.312-64h74.709333L597.333333 576l-37.312 64zM634.645333 725.333333L597.333333 661.333333l37.312-64h74.709334L746.666667 661.333333l-37.312 64zM485.312 810.666667L448 746.666667l37.312-64h74.709333L597.333333 746.666667l-37.312 64zM335.978667 725.333333L298.666667 661.333333l37.312-64h74.709333L448 661.333333l-37.312 64zM335.978667 554.666667L298.666667 490.666667l37.312-64h74.709333L448 490.666667l-37.312 64z" fill="#FFC107" /><path d="M789.333333 256V170.666667a42.666667 42.666667 0 0 0-42.666666-42.666667H277.333333a42.666667 42.666667 0 0 0-42.666666 42.666667v85.333333h554.666666z" fill="#795548" /><path d="M234.666667 234.688h554.666666V277.333333H234.666667z" fill="#5D4037" /></svg>