<?xml version="1.0" encoding="utf-8"?>
<!-- Uploaded to: SVG Repo, www.svgrepo.com, Generator: SVG Repo Mixer Tools -->
<!DOCTYPE svg PUBLIC "-//W3C//DTD SVG 1.1//EN" "http://www.w3.org/Graphics/SVG/1.1/DTD/svg11.dtd">
<svg xmlns="http://www.w3.org/2000/svg" xmlns:xlink="http://www.w3.org/1999/xlink" version="1.1" id="Layer_1"  width="512" height="512" viewBox="0 0 512 512" enable-background="new 0 0 512 512" xml:space="preserve">
<g id="server">
	<g>
		<polygon fill="#434A54" points="288,405.34 288,311.996 224,311.996 224,405.34 0,405.34 0,469.34 224,469.34 288,469.34     512,469.34 512,405.34   "/>
	</g>
	<rect x="224" y="334.027" fill="#CCD1D9" width="64" height="135.312"/>
	<rect x="170.672" y="405.34" fill="#CCD1D9" width="170.672" height="64"/>
	<g>
		<polygon fill="#434A54" points="448,203.988 64,203.988 64,85.332 128,42.66 384,42.66 448,85.332   "/>
	</g>
	<g>
		<rect x="64" y="85.332" fill="#656D78" width="384" height="128"/>
	</g>
	<g>
		<circle fill="#A0D468" cx="384" cy="149.332" r="32"/>
	</g>
	<g>
		<rect x="64" y="234.66" fill="#656D78" width="384" height="127.992"/>
	</g>
	<g>
		<path fill="#A0D468" d="M416,298.652c0,17.688-14.328,32-32,32s-32-14.312-32-32c0-17.656,14.328-31.992,32-31.992    S416,280.996,416,298.652z"/>
	</g>
	<g>
		<path fill="#434A54" d="M117.336,170.66c2.945,0,5.617-1.188,7.547-3.125l21.328-21.328c1.93-1.938,3.125-4.594,3.125-7.547    c0-5.891-4.773-10.672-10.664-10.672c-2.945,0-5.617,1.203-7.547,3.125l-21.328,21.344c-1.938,1.922-3.125,4.594-3.125,7.531    C106.672,165.895,111.445,170.66,117.336,170.66z"/>
		<path fill="#434A54" d="M160,170.66c2.953,0,5.617-1.188,7.547-3.125l21.328-21.328c1.93-1.938,3.125-4.594,3.125-7.547    c0-5.891-4.773-10.672-10.664-10.672c-2.945,0-5.609,1.203-7.539,3.125l-21.336,21.344c-1.93,1.922-3.125,4.594-3.125,7.531    C149.336,165.895,154.109,170.66,160,170.66z"/>
		<path fill="#434A54" d="M202.672,170.66c2.945,0,5.609-1.188,7.539-3.125l21.328-21.328c1.938-1.938,3.133-4.594,3.133-7.547    c0-5.891-4.781-10.672-10.672-10.672c-2.945,0-5.609,1.203-7.539,3.125l-21.336,21.344c-1.93,1.922-3.125,4.594-3.125,7.531    C192,165.895,196.781,170.66,202.672,170.66z"/>
		<path fill="#434A54" d="M149.336,287.996c0-5.906-4.773-10.656-10.664-10.656c-2.953,0-5.617,1.188-7.547,3.125l-21.328,21.312    c-1.93,1.938-3.125,4.594-3.125,7.562c0,5.875,4.773,10.656,10.664,10.656c2.945,0,5.617-1.188,7.547-3.125l21.328-21.344    C148.141,293.621,149.336,290.934,149.336,287.996z"/>
		<path fill="#434A54" d="M192,287.996c0-5.906-4.773-10.656-10.664-10.656c-2.945,0-5.617,1.188-7.547,3.125l-21.328,21.312    c-1.93,1.938-3.125,4.594-3.125,7.562c0,5.875,4.773,10.656,10.664,10.656c2.953,0,5.617-1.188,7.547-3.125l21.328-21.344    C190.805,293.621,192,290.934,192,287.996z"/>
		<path fill="#434A54" d="M224,277.34c-2.945,0-5.609,1.188-7.539,3.125l-21.328,21.312c-1.938,1.938-3.133,4.594-3.133,7.562    c0,5.875,4.781,10.656,10.672,10.656c2.945,0,5.609-1.188,7.539-3.125l21.328-21.344c1.938-1.906,3.133-4.594,3.133-7.531    C234.672,282.09,229.891,277.34,224,277.34z"/>
	</g>
	<rect x="64.008" y="213.332" fill="#434A54" width="383.992" height="21.328"/>
	<rect x="245.336" y="362.652" fill="#E6E9ED" width="21.336" height="74.688"/>
	<rect x="170.672" y="426.652" fill="#E6E9ED" width="170.672" height="21.344"/>
</g>
</svg>