<?xml version="1.0" encoding="iso-8859-1"?>
<!-- Uploaded to: SVG Repo, www.svgrepo.com, Generator: SVG Repo Mixer Tools -->
<svg version="1.1" id="Layer_1" xmlns="http://www.w3.org/2000/svg" xmlns:xlink="http://www.w3.org/1999/xlink" 
	 viewBox="0 0 496.8 496.8" xml:space="preserve">
<path style="fill:#EAE9DA;" d="M472.4,403.2c0,56-46.4,92.8-102.4,92.8H128.4c-56,0-104-44.8-104-92.8V204.8
	C24.4,149.6,70,104,125.2,104h245.6c56,0,100.8,45.6,100.8,100.8v198.4H472.4z"/>
<path style="fill:#CCCAB6;" d="M128.4,104H370c56,0,102.4,41.6,102.4,97.6v197.6c0,56-46.4,97.6-102.4,97.6"/>
<path style="fill:#EA8B18;" d="M24.4,224v174.4c0,56,46.4,97.6,102.4,97.6H370c56,0,102.4-41.6,102.4-97.6V224H24.4z"/>
<path style="fill:#D3750D;" d="M128.4,496H370c56,0,102.4-41.6,102.4-97.6v-172L126,224.8"/>
<path style="fill:#F7CA4D;" d="M80.4,376.8c0,6.4-5.6,12-12,12l0,0c-6.4,0-12-5.6-12-12V247.2c0-6.4,5.6-12,12-12l0,0
	c6.4,0,12,5.6,12,12V376.8z"/>
<path style="fill:#FFFFFF;" d="M80.4,201.6c0,6.4-5.6,12-12,12l0,0c-6.4,0-12-5.6-12-12v-38.4c0-5.6,5.6-11.2,12-11.2l0,0
	c6.4,0,12,5.6,12,12V201.6z"/>
<path style="fill:#F7CA4D;" d="M80.4,423.2c0,6.4-5.6,12-12,12l0,0c-6.4,0-12-5.6-12-12v-8c0-6.4,5.6-12,12-12l0,0
	c6.4,0,12,5.6,12,12V423.2z"/>
<path style="fill:#239B02;" d="M430.8,52c0,26.4-21.6,52-48,52H114c-26.4,0-48-25.6-48-52l0,0c0-26.4,21.6-52,48-52h268
	C409.2,0,430.8,25.6,430.8,52L430.8,52z"/>
<path style="fill:#1A6000;" d="M430.8,53.6L430.8,53.6c0,26.4-21.6,50.4-48,50.4H114c-26.4,0-48-22.4-48-48.8l0,0"/>
<path style="fill:#CCCAB6;" d="M437.2,12c0-8-6.4-12-13.6-12H73.2c-8,0-13.6,4-13.6,12c0,4.8,2.4,8,5.6,10.4
	c2.4,13.6,14.4,23.2,28,23.2c8.8,0,16.8-4.8,22.4-11.2c5.6,6.4,12.8,10.4,22.4,10.4c8.8,0,16.8-4,22.4-10.4
	c5.6,6.4,12.8,10.4,22.4,10.4c8.8,0,16.8-4,22.4-10.4c5.6,6.4,12.8,10.4,22.4,10.4s16.8-4,22.4-10.4c5.6,6.4,12.8,10.4,22.4,10.4
	c9.6,0,16.8-4,22.4-10.4c5.6,6.4,12.8,10.4,22.4,10.4c8.8,0,16.8-4,22.4-10.4c5.6,6.4,12.8,10.4,22.4,10.4c8.8,0,16.8-4,22.4-10.4
	c5.6,6.4,12.8,10.4,22.4,10.4c14.4,0,25.6-9.6,28-23.2C434.8,20,437.2,16.8,437.2,12z"/>
<path style="fill:#BAB699;" d="M423.6,0H248.4v35.2c0,0,0-0.8,0.8-0.8c5.6,6.4,12.8,10.4,21.6,10.4c8.8,0,16.8-4,22.4-10.4
	c5.6,6.4,12.8,10.4,22.4,10.4c8.8,0,16.8-4,22.4-10.4c5.6,6.4,12.8,10.4,22.4,10.4c8.8,0,16.8-4,22.4-10.4
	c5.6,6.4,12.8,10.4,22.4,10.4c14.4,0,25.6-10.4,28-24c3.2-2.4,5.6-4.8,5.6-9.6C437.2,4,430.8,0,423.6,0z"/>
<rect x="24.4" y="224" style="fill:#C65E00;" width="448" height="8"/>
<polygon style="fill:#F9CA06;" points="376.4,376 248.4,452 120.4,376 120.4,224 248.4,147.2 376.4,224 "/>
<polyline style="fill:#D3AB05;" points="248.4,147.2 376.4,224 376.4,376 248.4,452 "/>
<polygon style="fill:#34B515;" points="352.4,359.2 248.4,418.4 144.4,359.2 144.4,240.8 248.4,180.8 352.4,240.8 "/>
<polyline style="fill:#239B02;" points="144.4,240.8 249.2,180.8 352.4,240.8 352.4,359.2 248.4,418.4 "/>
<g>
	<polygon style="fill:#F9CA06;" points="224.4,328 224.4,339.2 226,344 270.8,344 272.4,339.2 272.4,328 	"/>
	<polygon style="fill:#F9CA06;" points="272.4,296 272.4,283.2 248.4,272 224.4,283.2 224.4,296 	"/>
</g>
<g>
	<rect x="224.4" y="304" style="fill:#D3AB05;" width="48" height="16"/>
	<polygon style="fill:#D3AB05;" points="236.4,352 248.4,363.2 260.4,352 	"/>
</g>
<g>
	<polygon style="fill:#F9CA06;" points="216.4,280 216.4,308.8 166.8,305.6 153.2,265.6 179.6,253.6 	"/>
	<polygon style="fill:#F9CA06;" points="216.4,336.8 216.4,316 180.4,318.4 170.8,347.2 190,356 	"/>
</g>
<g>
	<polygon style="fill:#D3AB05;" points="280.4,280 280.4,308.8 330,305.6 343.6,265.6 317.2,253.6 	"/>
	<polygon style="fill:#D3AB05;" points="280.4,336.8 280.4,316 316.4,318.4 326,347.2 306.8,356 	"/>
</g>
</svg>