<?xml version="1.0" encoding="iso-8859-1"?>
<!-- Uploaded to: SVG Repo, www.svgrepo.com, Generator: SVG Repo Mixer Tools -->
<svg version="1.1" id="Layer_1" xmlns="http://www.w3.org/2000/svg" xmlns:xlink="http://www.w3.org/1999/xlink" 
	 viewBox="0 0 512 512" xml:space="preserve">
<path style="fill:#ECEDEF;" d="M451.974,504.012H60.026c-9.412,0-17.041-7.629-17.041-17.041V333.6
	c0-9.412,7.629-17.041,17.041-17.041h391.949c9.412,0,17.041,7.629,17.041,17.041v153.371
	C469.016,496.382,461.385,504.012,451.974,504.012z"/>
<path style="fill:#509FE8;" d="M486.057,478.45H25.943c-9.412,0-17.041-7.629-17.041-17.041V359.162
	c0-9.412,7.629-17.041,17.041-17.041h460.114c9.412,0,17.041,7.629,17.041,17.041v102.247
	C503.098,470.82,495.468,478.45,486.057,478.45z"/>
<path style="fill:#4D8CCF;" d="M42.985,452.888c-4.706,0-8.521-3.815-8.521-8.521V342.12h-8.521
	c-9.412,0-17.041,7.629-17.041,17.041v102.247c0,9.411,7.629,17.041,17.041,17.041h460.114c9.411,0,17.041-7.63,17.041-17.041
	v-8.521H42.985z"/>
<circle style="fill:#C4DF64;" cx="85.59" cy="410.29" r="17.041"/>
<circle style="fill:#FF8C78;" cx="153.755" cy="410.29" r="17.041"/>
<circle style="fill:#C4DF64;" cx="221.92" cy="410.29" r="17.041"/>
<path style="fill:#B3B9BF;" d="M273.041,86.502c0-9.411-7.629-17.041-17.041-17.041c-9.412,0-17.041,7.63-17.041,17.041v34.082
	h34.082V86.502z"/>
<rect x="238.961" y="120.588" style="fill:#D9DCDF;" width="34.082" height="195.974"/>
<path d="M486.057,334.132h-9.053V333.6c0-13.801-11.228-25.029-25.029-25.029H281.029V86.502c0-13.801-11.228-25.029-25.029-25.029
	c-13.801,0-25.029,11.228-25.029,25.029V205.79c0,4.413,3.575,7.988,7.988,7.988c4.413,0,7.988-3.575,7.988-7.988v-77.218h18.106
	V308.57h-18.106v-60.177c0-4.413-3.575-7.988-7.988-7.988c-4.413,0-7.988,3.575-7.988,7.988v60.177H60.026
	c-13.801,0-25.029,11.228-25.029,25.029v0.533h-9.053c-13.801,0-25.029,11.228-25.029,25.029v102.247
	c0,13.801,11.228,25.029,25.029,25.029h9.053v0.533c0,13.801,11.228,25.029,25.029,25.029h391.949
	c13.801,0,25.029-11.228,25.029-25.029v-0.533h9.053c13.801,0,25.029-11.228,25.029-25.029V359.162
	C511.086,345.36,499.858,334.132,486.057,334.132z M246.947,112.596V86.502c0-4.992,4.061-9.053,9.053-9.053
	c4.992,0,9.053,4.061,9.053,9.053v26.094H246.947z M50.973,333.6c0-4.992,4.061-9.053,9.053-9.053h391.949
	c4.992,0,9.053,4.061,9.053,9.053v0.533H50.973V333.6z M495.11,461.409c0,4.992-4.061,9.053-9.053,9.053H179.314
	c-4.413,0-7.988,3.575-7.988,7.988c0,4.413,3.575,7.988,7.988,7.988h281.713v0.533c0,4.992-4.061,9.053-9.053,9.053H60.026
	c-4.992,0-9.053-4.061-9.053-9.053v-0.533h85.739c4.413,0,7.988-3.575,7.988-7.988c0-4.413-3.575-7.988-7.988-7.988H25.943
	c-4.992,0-9.053-4.061-9.053-9.053V359.162c0-4.992,4.061-9.053,9.053-9.053h460.114c4.992,0,9.053,4.061,9.053,9.053V461.409z"/>
<path d="M429.646,381.751c-3.307,2.919-3.622,7.967-0.703,11.275c4.206,4.766,6.523,10.895,6.523,17.26
	c0,14.389-11.705,26.094-26.094,26.094s-26.094-11.705-26.094-26.094c0-6.365,2.317-12.493,6.52-17.256
	c2.92-3.307,2.605-8.356-0.701-11.276c-3.307-2.918-8.357-2.604-11.275,0.702c-6.785,7.686-10.521,17.568-10.521,27.83
	c0,23.197,18.873,42.071,42.071,42.071s42.071-18.873,42.071-42.071c0-10.261-3.736-20.145-10.521-27.832
	C438.002,379.146,432.953,378.83,429.646,381.751z"/>
<path d="M409.371,418.273c4.413,0,7.988-3.575,7.988-7.988v-34.082c0-4.413-3.575-7.988-7.988-7.988s-7.988,3.575-7.988,7.988
	v34.082C401.383,414.697,404.959,418.273,409.371,418.273z"/>
<path d="M85.588,385.256c-13.801,0-25.029,11.228-25.029,25.029c0,13.801,11.228,25.029,25.029,25.029s25.029-11.228,25.029-25.029
	C110.617,396.484,99.389,385.256,85.588,385.256z M85.588,419.338c-4.992,0-9.053-4.061-9.053-9.053s4.061-9.053,9.053-9.053
	c4.992,0,9.053,4.061,9.053,9.053S90.579,419.338,85.588,419.338z"/>
<path d="M153.753,385.256c-13.801,0-25.029,11.228-25.029,25.029c0,13.801,11.228,25.029,25.029,25.029s25.029-11.228,25.029-25.029
	C178.782,396.484,167.554,385.256,153.753,385.256z M153.753,419.338c-4.992,0-9.053-4.061-9.053-9.053s4.061-9.053,9.053-9.053
	s9.053,4.061,9.053,9.053S158.744,419.338,153.753,419.338z"/>
<path d="M221.918,385.256c-13.801,0-25.029,11.228-25.029,25.029c0,13.801,11.228,25.029,25.029,25.029s25.029-11.228,25.029-25.029
	C246.947,396.484,235.719,385.256,221.918,385.256z M221.918,419.338c-4.992,0-9.053-4.061-9.053-9.053s4.061-9.053,9.053-9.053
	s9.053,4.061,9.053,9.053S226.909,419.338,221.918,419.338z"/>
<path d="M311.644,100.112c3.772,2.181,8.736,0.851,10.915-2.914c5.177-8.949,7.915-19.172,7.915-29.564
	c0-10.39-2.736-20.612-7.914-29.561c-2.208-3.819-7.097-5.123-10.914-2.915c-3.819,2.209-5.125,7.096-2.915,10.914
	c3.772,6.523,5.766,13.978,5.766,21.563c0,7.585-1.994,15.042-5.767,21.564C306.521,93.016,307.826,97.902,311.644,100.112z"/>
<path d="M348.58,67.634c0,13.575-3.57,26.923-10.324,38.601c-2.01,3.473-1.063,8.045,2.17,10.426
	c3.786,2.789,9.31,1.637,11.659-2.427c8.158-14.105,12.471-30.219,12.471-46.599c0-16.384-4.314-32.499-12.473-46.604
	c-2.21-3.817-7.096-5.122-10.915-2.914c-3.818,2.209-5.124,7.097-2.914,10.915C345.009,40.708,348.58,54.056,348.58,67.634z"/>
<path d="M369.492,135.947c3.729,2.249,8.72,1.007,10.964-2.72c11.896-19.745,18.183-42.427,18.183-65.593
	c0-22.375-5.89-44.383-17.033-63.645c-2.21-3.818-7.094-5.123-10.915-2.914c-3.818,2.209-5.124,7.096-2.914,10.915
	c9.739,16.834,14.887,36.074,14.887,55.644c0,20.26-5.495,40.092-15.891,57.349C364.494,128.762,365.713,133.671,369.492,135.947z"
	/>
<path d="M196.363,101.187c6.06,0,9.924-6.774,6.907-11.99c-3.774-6.521-5.767-13.978-5.767-21.564c0-7.584,1.994-15.04,5.766-21.563
	c2.209-3.818,0.904-8.705-2.915-10.914c-3.82-2.207-8.706-0.904-10.914,2.915c-5.176,8.949-7.914,19.171-7.914,29.561
	c0,10.392,2.736,20.615,7.915,29.564C190.922,99.757,193.605,101.187,196.363,101.187z"/>
<path d="M166.837,118.223c6.059,0,9.924-6.774,6.907-11.989c-6.755-11.678-10.324-25.025-10.324-38.601
	c0-13.578,3.571-26.926,10.326-38.603c2.209-3.818,0.904-8.706-2.914-10.915c-3.815-2.205-8.705-0.904-10.915,2.914
	c-8.16,14.105-12.473,30.219-12.473,46.604c0,16.38,4.312,32.494,12.471,46.599C161.396,116.792,164.079,118.223,166.837,118.223z"
	/>
<path d="M138.394,137.094c6.12,0,9.976-6.897,6.835-12.111c-10.396-17.257-15.891-37.088-15.891-57.349
	c0-19.57,5.148-38.81,14.887-55.644c2.209-3.819,0.904-8.706-2.914-10.915c-3.82-2.208-8.706-0.904-10.915,2.914
	c-11.143,19.262-17.033,41.27-17.033,63.645c0,23.165,6.287,45.847,18.183,65.593C133.044,135.716,135.686,137.094,138.394,137.094z
	"/>
</svg>